<svg id="SvgjsSvg1027" width="288" height="288" xmlns="http://www.w3.org/2000/svg" version="1.1" xmlns:xlink="http://www.w3.org/1999/xlink" xmlns:svgjs="http://svgjs.com/svgjs"><defs id="SvgjsDefs1028"></defs><g id="SvgjsG1029" transform="matrix(0.9167,0,0,0.9167,11.995200000000011,11.995200000000011)"><svg xmlns="http://www.w3.org/2000/svg" width="288" height="288" fill-rule="evenodd" clip-rule="evenodd" image-rendering="optimizeQuality" shape-rendering="geometricPrecision" text-rendering="geometricPrecision" viewBox="0 0 187 187"><rect width="187" height="187" fill="#ffffff" rx="18" ry="18" class="color485992 svgShape"></rect><path fill="#fefefe" d="M131 79l0 -12c0,-6 4,-7 6,-7 3,0 18,0 18,0l0 -27 -24 0c-27,0 -33,20 -33,32l0 14 -15 0 0 19 0 12 16 0c0,35 0,77 0,77l30 0c0,0 0,-42 0,-77l23 0 1 -12 2 -19 -24 0z" class="colorfefefe svgShape"></path></svg></g></svg>